HIERARCHY
ROOT hips
{
	OFFSET 0.000000 104.274902 0.000000
	CHANNELS 6 Xposition Yposition Zposition Xrotation Yrotation Zrotation
	JOINT spine
	{
		OFFSET 0.000000 10.181549 0.131524
		CHANNELS 6 Xposition Yposition Zposition Xrotation Yrotation Zrotation
		JOINT chest
		{
			OFFSET 0.000000 9.893990 -1.470706
			CHANNELS 3 Xrotation Yrotation Zrotation
			JOINT upperChest
			{
				OFFSET 0.000000 9.220787 -1.370637
				CHANNELS 3 Xrotation Yrotation Zrotation
				JOINT neck
				{
					OFFSET 0.000000 16.740372 -2.049022
					CHANNELS 6 Xposition Yposition Zposition Xrotation Yrotation Zrotation
					JOINT head
					{
						OFFSET 0.000000 9.617859 1.684976
						CHANNELS 6 Xposition Yposition Zposition Xrotation Yrotation Zrotation
						JOINT headEnd
						{
							OFFSET 0.000000 22.037384 7.501072
							CHANNELS 6 Xposition Yposition Zposition Xrotation Yrotation Zrotation
							End Site
							{
								OFFSET 0.000000 23.106567 -2.828246
							}
						}
					}
				}
				JOINT rightShoulder
				{
					OFFSET -4.570000 11.014877 -2.160840
					CHANNELS 6 Xposition Yposition Zposition Xrotation Yrotation Zrotation
					JOINT rightUpperArm
					{
						OFFSET -10.592867 -0.524796 -2.232105
						CHANNELS 3 Xrotation Yrotation Zrotation
						JOINT rightLowerArm
						{
							OFFSET -27.841497 0.000000 -0.000002
							CHANNELS 3 Xrotation Yrotation Zrotation
							JOINT rightHand
							{
								OFFSET -28.328812 0.000000 -0.000001
								CHANNELS 3 Xrotation Yrotation Zrotation
								JOINT rightThumbProximal
								{
									OFFSET -2.464798 -1.573990 2.681911
									CHANNELS 6 Xposition Yposition Zposition Xrotation Yrotation Zrotation
									JOINT rightThumbIntermediate
									{
										OFFSET -3.244781 -1.873383 1.873376
										CHANNELS 3 Xrotation Yrotation Zrotation
										JOINT rightThumbDistal
										{
											OFFSET -2.646263 -1.527817 1.527818
											CHANNELS 6 Xposition Yposition Zposition Xrotation Yrotation Zrotation
											JOINT rightHandThumb4
											{
												OFFSET -1.994591 -1.151581 1.151575
												CHANNELS 6 Xposition Yposition Zposition Xrotation Yrotation Zrotation
												End Site
												{
													OFFSET -1.860176 -1.142715 1.365483
												}
											}
										}
									}
								}
								JOINT rightIndexProximal
								{
									OFFSET -9.108299 -0.517883 2.259803
									CHANNELS 6 Xposition Yposition Zposition Xrotation Yrotation Zrotation
									JOINT rightIndexIntermediate
									{
										OFFSET -3.699997 0.000000 0.000000
										CHANNELS 3 Xrotation Yrotation Zrotation
										JOINT rightIndexDistal
										{
											OFFSET -2.850006 0.000000 0.000000
											CHANNELS 3 Xrotation Yrotation Zrotation
											JOINT rightHandIndex4
											{
												OFFSET -2.772194 0.000000 0.000000
												CHANNELS 3 Xrotation Yrotation Zrotation
												End Site
												{
													OFFSET -2.772202 0.000000 -0.000484
												}
											}
										}
									}
								}
								JOINT rightMiddleProximal
								{
									OFFSET -9.532501 0.000000 -0.000000
									CHANNELS 6 Xposition Yposition Zposition Xrotation Yrotation Zrotation
									JOINT rightMiddleIntermediate
									{
										OFFSET -3.699997 0.000000 0.000000
										CHANNELS 3 Xrotation Yrotation Zrotation
										JOINT rightMiddleDistal
										{
											OFFSET -2.949997 0.000000 0.000000
											CHANNELS 3 Xrotation Yrotation Zrotation
											JOINT rightHandMiddle4
											{
												OFFSET -2.946594 0.000000 0.000000
												CHANNELS 3 Xrotation Yrotation Zrotation
												End Site
												{
													OFFSET -2.946602 0.000000 -0.000982
												}
											}
										}
									}
								}
								JOINT rightRingProximal
								{
									OFFSET -9.103600 -0.043106 -1.865100
									CHANNELS 6 Xposition Yposition Zposition Xrotation Yrotation Zrotation
									JOINT rightRingIntermediate
									{
										OFFSET -3.379303 0.000000 0.000000
										CHANNELS 3 Xrotation Yrotation Zrotation
										JOINT rightRingDistal
										{
											OFFSET -2.889694 0.000000 0.000000
											CHANNELS 3 Xrotation Yrotation Zrotation
											JOINT rightHandRing4
											{
												OFFSET -2.638802 0.000000 0.000000
												CHANNELS 3 Xrotation Yrotation Zrotation
												End Site
												{
													OFFSET -2.638802 0.000000 0.004218
												}
											}
										}
									}
								}
								JOINT rightLittleProximal
								{
									OFFSET -8.076698 -0.486725 -3.806299
									CHANNELS 6 Xposition Yposition Zposition Xrotation Yrotation Zrotation
									JOINT rightLittleIntermediate
									{
										OFFSET -3.600006 0.000000 0.000000
										CHANNELS 3 Xrotation Yrotation Zrotation
										JOINT rightLittleDistal
										{
											OFFSET -2.099998 0.000000 0.000000
											CHANNELS 3 Xrotation Yrotation Zrotation
											JOINT rightHandPinky4
											{
												OFFSET -2.115791 0.000000 0.000000
												CHANNELS 3 Xrotation Yrotation Zrotation
												End Site
												{
													OFFSET -2.115799 0.000000 0.000174
												}
											}
										}
									}
								}
							}
						}
					}
				}
				JOINT leftShoulder
				{
					OFFSET 4.570400 11.014679 -2.160816
					CHANNELS 6 Xposition Yposition Zposition Xrotation Yrotation Zrotation
					JOINT leftUpperArm
					{
						OFFSET 10.592373 -0.524597 -2.232116
						CHANNELS 3 Xrotation Yrotation Zrotation
						JOINT leftLowerArm
						{
							OFFSET 27.841488 0.000000 0.000001
							CHANNELS 3 Xrotation Yrotation Zrotation
							JOINT leftHand
							{
								OFFSET 28.328808 0.000000 -0.000000
								CHANNELS 3 Xrotation Yrotation Zrotation
								JOINT leftThumbProximal
								{
									OFFSET 2.466103 -1.576202 2.681698
									CHANNELS 6 Xposition Yposition Zposition Xrotation Yrotation Zrotation
									JOINT leftThumbIntermediate
									{
										OFFSET 3.243317 -1.872528 1.872530
										CHANNELS 3 Xrotation Yrotation Zrotation
										JOINT leftThumbDistal
										{
											OFFSET 2.647881 -1.528763 1.528754
											CHANNELS 6 Xposition Yposition Zposition Xrotation Yrotation Zrotation
											JOINT leftHandThumb4
											{
												OFFSET 1.998924 -1.154083 1.154080
												CHANNELS 6 Xposition Yposition Zposition Xrotation Yrotation Zrotation
												End Site
												{
													OFFSET 1.884041 -1.149155 1.337651
												}
											}
										}
									}
								}
								JOINT leftIndexProximal
								{
									OFFSET 9.109299 -0.518005 2.259900
									CHANNELS 6 Xposition Yposition Zposition Xrotation Yrotation Zrotation
									JOINT leftIndexIntermediate
									{
										OFFSET 3.699997 0.000000 0.000000
										CHANNELS 3 Xrotation Yrotation Zrotation
										JOINT leftIndexDistal
										{
											OFFSET 2.850006 0.000000 0.000000
											CHANNELS 3 Xrotation Yrotation Zrotation
											JOINT leftHandIndex4
											{
												OFFSET 2.774895 0.000000 0.000000
												CHANNELS 3 Xrotation Yrotation Zrotation
												End Site
												{
													OFFSET 2.774902 0.000000 -0.000072
												}
											}
										}
									}
								}
								JOINT leftMiddleProximal
								{
									OFFSET 9.533401 0.000000 0.000000
									CHANNELS 6 Xposition Yposition Zposition Xrotation Yrotation Zrotation
									JOINT leftMiddleIntermediate
									{
										OFFSET 3.699997 0.000000 0.000000
										CHANNELS 3 Xrotation Yrotation Zrotation
										JOINT leftMiddleDistal
										{
											OFFSET 2.949997 0.000000 0.000000
											CHANNELS 3 Xrotation Yrotation Zrotation
											JOINT leftHandMiddle4
											{
												OFFSET 2.952896 0.000000 0.000000
												CHANNELS 3 Xrotation Yrotation Zrotation
												End Site
												{
													OFFSET 2.952904 0.000000 0.000165
												}
											}
										}
									}
								}
								JOINT leftRingProximal
								{
									OFFSET 9.104500 -0.042999 -1.865101
									CHANNELS 6 Xposition Yposition Zposition Xrotation Yrotation Zrotation
									JOINT leftRingIntermediate
									{
										OFFSET 3.149994 0.000000 0.000000
										CHANNELS 3 Xrotation Yrotation Zrotation
										JOINT leftRingDistal
										{
											OFFSET 2.950005 0.000000 0.000000
											CHANNELS 3 Xrotation Yrotation Zrotation
											JOINT leftHandRing4
											{
												OFFSET 2.644302 0.000000 0.000000
												CHANNELS 3 Xrotation Yrotation Zrotation
												End Site
												{
													OFFSET 2.644302 0.000000 0.000083
												}
											}
										}
									}
								}
								JOINT leftLittleProximal
								{
									OFFSET 8.077805 -0.486893 -3.806302
									CHANNELS 6 Xposition Yposition Zposition Xrotation Yrotation Zrotation
									JOINT leftLittleIntermediate
									{
										OFFSET 3.600006 0.000000 0.000000
										CHANNELS 3 Xrotation Yrotation Zrotation
										JOINT leftLittleDistal
										{
											OFFSET 2.099998 0.000000 0.000000
											CHANNELS 3 Xrotation Yrotation Zrotation
											JOINT leftHandPinky4
											{
												OFFSET 2.125496 0.000000 0.000000
												CHANNELS 3 Xrotation Yrotation Zrotation
												End Site
												{
													OFFSET 2.125504 0.000000 -0.001254
												}
											}
										}
									}
								}
							}
						}
					}
				}
			}
		}
	}
	JOINT rightUpperLeg
	{
		OFFSET -8.207800 -6.751701 -1.599544
		CHANNELS 6 Xposition Yposition Zposition Xrotation Yrotation Zrotation
		JOINT rightLowerLeg
		{
			OFFSET 0.000004 -44.370152 0.345934
			CHANNELS 3 Xrotation Yrotation Zrotation
			JOINT rightFoot
			{
				OFFSET 0.000004 -44.423664 -3.043535
				CHANNELS 3 Xrotation Yrotation Zrotation
				JOINT rightToes
				{
					OFFSET 0.000001 -8.728691 10.710592
					CHANNELS 3 Xrotation Yrotation Zrotation
					JOINT rightToesEnd
					{
						OFFSET 0.000000 -0.000665 9.278101
						CHANNELS 3 Xrotation Yrotation Zrotation
						End Site
						{
							OFFSET 0.000000 -0.000665 9.278103
						}
					}
				}
			}
		}
	}
	JOINT leftUpperLeg
	{
		OFFSET 8.207800 -6.751701 -1.599544
		CHANNELS 6 Xposition Yposition Zposition Xrotation Yrotation Zrotation
		JOINT leftLowerLeg
		{
			OFFSET 0.000004 -44.370037 0.346940
			CHANNELS 3 Xrotation Yrotation Zrotation
			JOINT leftFoot
			{
				OFFSET 0.000004 -44.423611 -3.044388
				CHANNELS 3 Xrotation Yrotation Zrotation
				JOINT leftToes
				{
					OFFSET 0.000001 -8.728690 10.710592
					CHANNELS 3 Xrotation Yrotation Zrotation
					JOINT leftToesEnd
					{
						OFFSET 0.000000 -0.000680 9.278101
						CHANNELS 3 Xrotation Yrotation Zrotation
						End Site
						{
							OFFSET 0.000000 -0.000680 9.278101
						}
					}
				}
			}
		}
	}
}
MOTION
Frames: 4
Frame Time: 0.033333
5.290720 101.913834 2.881382 -0.195711 11.014092 -4.968772 -0.000001 10.181547 0.131524 1.604776 -2.750672 2.428648 1.451917 -2.743630 4.810420 1.428648 -2.229339 4.714566 0.000000 16.740356 -2.049020 5.329633 -3.771707 -6.020299 0.000000 9.617824 1.684971 36.705638 -13.888373 2.235075 -0.000001 22.037384 7.501059 -0.000003 -0.000001 -0.000000 -4.570000 11.014886 -2.160841 2.201887 3.277088 1.366638 36.483428 -14.504863 67.303099 0.000190 117.946111 -0.000128 3.751395 26.488589 -24.556606 -2.464795 -1.573990 2.681912 18.500064 0.463419 -10.930282 1.294068 -32.747591 3.094646 -2.646268 -1.527806 1.527832 1.981893 -8.440253 1.202901 -1.994606 -1.151599 1.151573 0.000003 -0.000006 0.000003 -9.108297 -0.517881 2.259806 0.340164 -4.675622 7.843846 0.387028 -2.823582 20.566226 -0.193128 -0.216340 13.843933 -0.000000 0.000000 0.000001 -9.532493 0.000010 0.000007 0.911479 -8.767201 15.815487 0.920766 -3.993804 33.432243 0.216703 -1.689629 15.906367 -0.000001 0.000000 0.000002 -9.103603 -0.043102 -1.865092 2.553590 -11.670331 26.896744 1.712109 -3.888190 40.236006 -0.157894 0.034730 17.820670 -0.000000 0.000000 -0.000001 -8.076694 -0.486728 -3.806294 5.582501 -16.027751 36.941167 1.378905 -4.077879 45.648716 -0.727800 -0.248503 22.131176 0.000001 0.000001 0.000000 4.570403 11.014668 -2.160814 -1.343406 -21.254528 -23.852791 -12.701806 -27.093146 -16.860587 0.000005 -138.207061 -0.000000 -36.493540 9.188075 20.762146 2.466109 -1.576204 2.681697 18.491368 -0.461338 10.916042 1.284034 32.757604 -3.089001 2.647887 -1.528732 1.528758 2.117126 9.311158 -0.358629 1.998917 -1.154096 1.154076 -0.000003 0.000001 -0.000000 9.109290 -0.518030 2.259897 1.227854 7.028115 -32.942842 1.759609 4.923266 -45.668134 0.920471 3.172739 -35.208829 0.000001 0.000001 0.000000 9.533400 0.000006 -0.000003 2.693938 10.477879 -41.108463 2.681745 5.753320 -58.626703 1.277408 3.710227 -37.337950 0.000000 0.000002 0.000001 9.104522 -0.042994 -1.865101 5.270940 12.291538 -52.380564 3.845216 5.191507 -65.535631 2.043221 3.789399 -44.407933 -0.000001 -0.000000 -0.000001 8.077816 -0.486897 -3.806304 7.472472 17.697237 -62.515000 3.390575 5.569361 -70.809213 1.984945 4.856982 -45.635335 -0.000001 0.000001 0.000001 -8.207800 -6.751707 -1.599544 -1.571640 -3.964824 8.082191 12.394457 -5.817271 3.402507 -11.428409 -8.532545 -5.594961 -0.504221 -0.000003 -0.000000 0.000000 -0.000001 -0.000000 8.207798 -6.751696 -1.599542 -21.528806 11.783944 12.185924 24.749708 0.435509 1.846436 -3.088890 2.998002 -3.664487 -1.670628 -0.000001 0.000001 0.000000 0.000001 0.000000 
5.229710 101.915993 2.926203 -0.269033 11.035692 -4.957571 -0.000000 10.181557 0.131524 1.587377 -2.716978 2.460836 1.413250 -2.685142 4.866183 1.389720 -2.170758 4.770322 0.000001 16.740339 -2.049020 5.335479 -3.733791 -6.101412 0.000000 9.617851 1.684970 37.123485 -13.853963 2.278984 -0.000002 22.037384 7.501077 -0.000000 -0.000000 -0.000000 -4.570001 11.014853 -2.160839 2.234507 3.319152 1.062095 36.873237 -13.583055 68.049755 0.000170 116.856983 -0.000115 2.212713 23.417671 -21.600465 -2.464796 -1.573995 2.681930 18.500080 0.463423 -10.930264 1.294070 -32.747591 3.094621 -2.646265 -1.527812 1.527825 1.981864 -8.440267 1.202890 -1.994586 -1.151586 1.151580 -0.000003 0.000000 0.000001 -9.108296 -0.517884 2.259821 0.340169 -4.675634 7.843847 0.387016 -2.823575 20.566234 -0.193120 -0.216345 13.843937 -0.000001 0.000001 0.000002 -9.532499 0.000011 0.000019 0.911468 -8.767206 15.815460 0.920781 -3.993793 33.432219 0.216688 -1.689627 15.906385 -0.000002 0.000002 -0.000001 -9.103600 -0.043104 -1.865088 2.553577 -11.670305 26.896732 1.712112 -3.888210 40.236002 -0.157891 0.034733 17.820676 -0.000002 0.000001 0.000000 -8.076684 -0.486728 -3.806285 5.582501 -16.027758 36.941160 1.378883 -4.077882 45.648746 -0.727790 -0.248503 22.131160 0.000000 -0.000003 0.000000 4.570401 11.014669 -2.160816 -1.393646 -21.721525 -23.945441 -14.093680 -27.457475 -17.107954 0.000002 -139.399475 -0.000011 -36.659073 13.064908 18.300303 2.466090 -1.576203 2.681691 18.491371 -0.461342 10.916058 1.284031 32.757615 -3.088992 2.647885 -1.528746 1.528745 2.117131 9.311156 -0.358628 1.998924 -1.154090 1.154070 -0.000004 -0.000003 0.000003 9.109295 -0.518007 2.259891 1.224263 7.027692 -32.944335 1.759714 4.923387 -45.669674 0.920551 3.172864 -35.210356 -0.000001 -0.000005 0.000000 9.533393 0.000001 -0.000010 2.695070 10.479100 -41.110711 2.681652 5.753276 -58.625617 1.277539 3.710388 -37.339821 -0.000001 0.000001 -0.000000 9.104506 -0.043002 -1.865104 5.274200 12.294319 -52.380366 3.845424 5.191609 -65.538015 2.043356 3.789492 -44.409419 -0.000001 -0.000000 -0.000001 8.077805 -0.486892 -3.806310 7.476375 17.695577 -62.516237 3.390557 5.569357 -70.808988 1.985051 4.857070 -45.636872 0.000004 -0.000002 -0.000005 -8.207800 -6.751705 -1.599544 -1.426096 -4.024342 8.140791 12.323758 -5.832214 3.385549 -11.432284 -8.489230 -5.668218 -0.501954 0.000003 0.000001 0.000000 0.000001 0.000000 8.207798 -6.751704 -1.599543 -21.470964 11.824449 12.269359 24.771658 0.353770 1.816498 -3.074680 3.000526 -3.677437 -1.720641 0.000005 0.000001 -0.000000 -0.000000 0.000000 
5.139114 101.923485 2.936530 -0.350262 11.024695 -4.957672 -0.000002 10.181538 0.131524 1.568946 -2.661098 2.494441 1.370532 -2.579484 4.914058 1.347107 -2.064938 4.818242 -0.000002 16.740374 -2.049022 5.292550 -3.751749 -6.153656 0.000001 9.617842 1.684973 37.321929 -14.037079 2.534479 0.000002 22.037369 7.501092 -0.000002 -0.000001 0.000000 -4.570003 11.014875 -2.160841 2.262106 3.317806 0.595076 36.909632 -12.886466 68.831942 0.000160 115.844762 -0.000126 0.716783 21.371291 -20.044148 -2.464803 -1.573980 2.681917 18.500064 0.463421 -10.930265 1.294063 -32.747574 3.094630 -2.646271 -1.527816 1.527822 1.981883 -8.440249 1.202886 -1.994602 -1.151585 1.151577 -0.000002 -0.000003 0.000001 -9.108307 -0.517874 2.259802 0.340152 -4.675626 7.843848 0.387036 -2.823574 20.566208 -0.193131 -0.216365 13.843959 -0.000001 0.000001 -0.000001 -9.532493 -0.000002 0.000004 0.911490 -8.767198 15.815469 0.920764 -3.993814 33.432219 0.216709 -1.689613 15.906387 0.000000 -0.000000 0.000001 -9.103601 -0.043107 -1.865090 2.553557 -11.670317 26.896730 1.712154 -3.888201 40.235996 -0.157922 0.034740 17.820682 -0.000001 0.000004 0.000001 -8.076702 -0.486723 -3.806293 5.582506 -16.027748 36.941157 1.378881 -4.077872 45.648750 -0.727787 -0.248496 22.131167 -0.000001 -0.000002 0.000000 4.570403 11.014685 -2.160815 -1.402868 -22.059161 -23.898919 -14.738158 -27.533343 -16.755410 0.000002 -140.975665 0.000005 -36.445001 15.956570 16.161090 2.466100 -1.576193 2.681696 18.491369 -0.461340 10.916056 1.284032 32.757615 -3.088998 2.647874 -1.528766 1.528743 2.117130 9.311159 -0.358623 1.998913 -1.154086 1.154078 -0.000004 0.000003 0.000005 9.109295 -0.518010 2.259892 1.219859 7.025964 -32.932529 1.758871 4.922589 -45.658134 0.919910 3.171899 -35.198844 -0.000001 0.000000 -0.000000 9.533407 0.000010 -0.000002 2.695650 10.480229 -41.100161 2.680504 5.752548 -58.611923 1.276820 3.709490 -37.328367 -0.000000 0.000002 0.000001 9.104510 -0.042986 -1.865105 5.276216 12.297131 -52.367859 3.844411 5.191265 -65.527148 2.042487 3.788773 -44.397900 -0.000001 0.000002 0.000003 8.077803 -0.486893 -3.806311 7.480187 17.692540 -62.504755 3.389471 5.568861 -70.796967 1.984168 4.856309 -45.625308 0.000000 0.000001 0.000002 -8.207801 -6.751710 -1.599544 -1.292795 -4.045644 8.247421 12.231020 -5.849639 3.344921 -11.402376 -8.444445 -5.794700 -0.500142 -0.000001 -0.000000 0.000000 -0.000000 -0.000000 8.207799 -6.751698 -1.599540 -21.451756 11.845995 12.376881 24.818887 0.293476 1.800949 -2.970176 3.001253 -3.691561 -1.864584 0.000005 0.000002 0.000000 0.000002 0.000000 
5.027812 101.931648 2.921485 -0.423211 11.085482 -4.978661 -0.000000 10.181553 0.131526 1.538934 -2.612403 2.507557 1.305447 -2.488258 4.918975 1.282481 -1.973385 4.823173 -0.000004 16.740349 -2.049019 5.219762 -3.810112 -6.166619 -0.000001 9.617819 1.684975 37.366206 -14.330671 2.830302 0.000005 22.037369 7.501070 -0.000000 -0.000000 -0.000000 -4.570001 11.014855 -2.160840 2.294839 3.376961 0.278630 36.956508 -12.620290 69.422254 0.000145 115.111091 -0.000094 -0.015385 19.465503 -19.855351 -2.464792 -1.573987 2.681915 18.500075 0.463419 -10.930277 1.294065 -32.747608 3.094626 -2.646272 -1.527818 1.527817 1.981897 -8.440254 1.202900 -1.994578 -1.151581 1.151574 0.000003 0.000004 0.000001 -9.108308 -0.517875 2.259800 0.340147 -4.675628 7.843849 0.387042 -2.823579 20.566214 -0.193139 -0.216356 13.843947 0.000001 0.000001 0.000005 -9.532498 -0.000002 0.000003 0.911462 -8.767185 15.815477 0.920784 -3.993810 33.432232 0.216699 -1.689623 15.906378 0.000001 0.000000 0.000001 -9.103602 -0.043113 -1.865105 2.553565 -11.670311 26.896715 1.712129 -3.888179 40.236009 -0.157923 0.034727 17.820677 -0.000000 0.000002 0.000001 -8.076688 -0.486725 -3.806304 5.582495 -16.027759 36.941160 1.378906 -4.077863 45.648736 -0.727793 -0.248511 22.131174 0.000002 0.000000 0.000000 4.570402 11.014696 -2.160815 -1.322959 -22.157627 -23.531291 -14.881804 -27.317936 -16.049500 -0.000002 -142.820813 0.000001 -36.192394 18.756304 14.270385 2.466102 -1.576186 2.681700 18.491369 -0.461318 10.916060 1.284027 32.757615 -3.088996 2.647881 -1.528750 1.528747 2.117127 9.311163 -0.358629 1.998924 -1.154093 1.154074 -0.000002 -0.000002 -0.000000 9.109308 -0.517994 2.259904 1.207544 7.009616 -32.743469 1.745272 4.909290 -45.469208 0.909518 3.155922 -35.010522 0.000001 -0.000001 0.000001 9.533412 0.000023 0.000002 2.680295 10.470899 -40.910244 2.664492 5.742354 -58.421361 1.265015 3.694883 -37.139864 -0.000000 -0.000000 0.000001 9.104509 -0.042990 -1.865108 5.258444 12.299082 -52.176078 3.826528 5.185135 -65.337323 2.028203 3.776765 -44.209349 -0.000001 0.000002 -0.000001 8.077809 -0.486881 -3.806296 7.464026 17.682786 -62.311788 3.372124 5.561111 -70.607531 1.969790 4.843948 -45.436372 0.000001 0.000003 0.000000 -8.207798 -6.751700 -1.599543 -1.145090 -4.075204 8.377570 12.066719 -5.852001 3.326759 -11.333259 -8.466693 -5.915883 -0.498573 -0.000003 0.000001 -0.000000 -0.000000 -0.000000 8.207796 -6.751687 -1.599544 -21.470604 11.822386 12.477384 24.867435 0.214887 1.826433 -2.817204 2.995161 -3.718858 -2.033659 0.000002 0.000001 0.000000 0.000001 0.000000 
